<svg width="24" height="24" viewBox="0 0 24 24" fill="currentColor" xmlns="http://www.w3.org/2000/svg">
<path fill-rule="evenodd" clip-rule="evenodd" d="M4 1H20C21.6569 1 23 2.34315 23 4V20C23 21.6569 21.6569 23 20 23H4C2.34315 23 1 21.6569 1 20V4C1 2.34315 2.34315 1 4 1ZM0 4C0 1.79086 1.79086 0 4 0H20C22.2091 0 24 1.79086 24 4V20C24 22.2091 22.2091 24 20 24H4C1.79086 24 0 22.2091 0 20V4ZM9.10742 9.36328L9.07812 8.66016H8.05273V15H9.13672V10.3711C9.39844 9.76562 9.88477 9.46289 10.5957 9.46289C11.498 9.46289 11.9492 9.92383 11.9492 10.8457V15H13.0391V10.793C13.082 10.3867 13.2363 10.0645 13.502 9.82617C13.7676 9.58398 14.1016 9.46289 14.5039 9.46289C14.9922 9.46289 15.3398 9.57617 15.5469 9.80273C15.7539 10.0254 15.8574 10.3633 15.8574 10.8164V15H16.9414V10.752C16.918 9.2793 16.2109 8.54297 14.8203 8.54297C14.3594 8.54297 13.959 8.63672 13.6191 8.82422C13.2832 9.01172 13.0098 9.25781 12.7988 9.5625C12.4785 8.88281 11.875 8.54297 10.9883 8.54297C10.1992 8.54297 9.57227 8.81641 9.10742 9.36328Z" />
</svg>
