<svg width="16" height="16" viewBox="0 0 16 16" fill="currentColor" xmlns="http://www.w3.org/2000/svg">
<path fill-rule="evenodd" clip-rule="evenodd" d="M4 1H12C13.6569 1 15 2.34315 15 4V12C15 13.6569 13.6569 15 12 15H4C2.34315 15 1 13.6569 1 12V4C1 2.34315 2.34315 1 4 1ZM0 4C0 1.79086 1.79086 0 4 0H12C14.2091 0 16 1.79086 16 4V12C16 14.2091 14.2091 16 12 16H4C1.79086 16 0 14.2091 0 12V4ZM9.17773 8.63867C9.40039 8.79883 9.51172 9.02539 9.51172 9.31836C9.51172 9.5957 9.38672 9.81836 9.13672 9.98633C8.89062 10.1504 8.5625 10.2324 8.15234 10.2324C7.70703 10.2324 7.34766 10.127 7.07422 9.91602C6.80469 9.70117 6.66016 9.41211 6.64062 9.04883H5.55664C5.55664 9.42383 5.66602 9.77344 5.88477 10.0977C6.10742 10.418 6.41406 10.668 6.80469 10.8477C7.19531 11.0273 7.64453 11.1172 8.15234 11.1172C8.875 11.1172 9.46289 10.9473 9.91602 10.6074C10.3691 10.2637 10.5957 9.80859 10.5957 9.24219C10.5957 8.90234 10.5137 8.61523 10.3496 8.38086C10.1895 8.14258 9.94141 7.93945 9.60547 7.77148C9.26953 7.60352 8.83008 7.45898 8.28711 7.33789C7.74805 7.2168 7.375 7.08984 7.16797 6.95703C6.96094 6.82422 6.85742 6.62695 6.85742 6.36523C6.85742 6.08789 6.96875 5.86328 7.19141 5.69141C7.41406 5.51953 7.72266 5.43359 8.11719 5.43359C8.5 5.43359 8.81641 5.54102 9.06641 5.75586C9.32031 5.9707 9.44727 6.22656 9.44727 6.52344H10.5371C10.5371 5.94531 10.3125 5.4707 9.86328 5.09961C9.41797 4.72852 8.83594 4.54297 8.11719 4.54297C7.43359 4.54297 6.87109 4.72266 6.42969 5.08203C5.99219 5.44141 5.77344 5.88086 5.77344 6.40039C5.77344 6.71289 5.84961 6.98242 6.00195 7.20898C6.1582 7.43555 6.39648 7.63086 6.7168 7.79492C7.04102 7.95898 7.47656 8.09961 8.02344 8.2168C8.57422 8.33398 8.95898 8.47461 9.17773 8.63867Z" />
</svg>
